<mxfile host="65bd71144e">
    <diagram id="P4zU7YYvW7Uebkn4KFdy" name="Page-1">
        <mxGraphModel dx="1882" dy="1400" grid="1" gridSize="10" guides="1" tooltips="1" connect="1" arrows="1" fold="1" page="1" pageScale="1" pageWidth="850" pageHeight="1100" background="#ffffff" math="0" shadow="0">
            <root>
                <mxCell id="0"/>
                <mxCell id="1" parent="0"/>
                <mxCell id="43" style="edgeStyle=none;html=1;noEdgeStyle=1;orthogonal=1;" parent="1" source="20" target="34" edge="1">
                    <mxGeometry relative="1" as="geometry">
                        <Array as="points">
                            <mxPoint x="100" y="593.5"/>
                            <mxPoint x="168" y="607.5"/>
                        </Array>
                    </mxGeometry>
                </mxCell>
                <mxCell id="44" style="edgeStyle=none;html=1;noEdgeStyle=1;orthogonal=1;" parent="1" source="20" target="35" edge="1">
                    <mxGeometry relative="1" as="geometry">
                        <Array as="points">
                            <mxPoint x="100" y="586.5"/>
                            <mxPoint x="168" y="497.5"/>
                        </Array>
                    </mxGeometry>
                </mxCell>
                <mxCell id="48" style="edgeStyle=none;html=1;noEdgeStyle=1;orthogonal=1;" parent="1" source="20" target="37" edge="1">
                    <mxGeometry relative="1" as="geometry">
                        <Array as="points">
                            <mxPoint x="94" y="565.5"/>
                            <mxPoint x="168" y="167.5"/>
                        </Array>
                    </mxGeometry>
                </mxCell>
                <mxCell id="49" style="edgeStyle=none;html=1;noEdgeStyle=1;orthogonal=1;" parent="1" source="20" target="42" edge="1">
                    <mxGeometry relative="1" as="geometry">
                        <Array as="points">
                            <mxPoint x="98" y="579.5"/>
                            <mxPoint x="168" y="387.5"/>
                        </Array>
                    </mxGeometry>
                </mxCell>
                <mxCell id="81" style="edgeStyle=none;html=1;noEdgeStyle=1;orthogonal=1;" parent="1" source="20" target="80" edge="1">
                    <mxGeometry relative="1" as="geometry">
                        <Array as="points">
                            <mxPoint x="96" y="607.5"/>
                            <mxPoint x="168" y="827.5"/>
                        </Array>
                    </mxGeometry>
                </mxCell>
                <mxCell id="84" style="edgeStyle=none;html=1;noEdgeStyle=1;orthogonal=1;" parent="1" source="20" target="83" edge="1">
                    <mxGeometry relative="1" as="geometry">
                        <Array as="points">
                            <mxPoint x="92" y="621.5"/>
                            <mxPoint x="168" y="1047.5"/>
                        </Array>
                    </mxGeometry>
                </mxCell>
                <mxCell id="90" style="edgeStyle=none;html=1;noEdgeStyle=1;orthogonal=1;" parent="1" source="20" target="86" edge="1">
                    <mxGeometry relative="1" as="geometry">
                        <Array as="points">
                            <mxPoint x="92" y="558.5"/>
                            <mxPoint x="168" y="57.5"/>
                        </Array>
                    </mxGeometry>
                </mxCell>
                <mxCell id="91" style="edgeStyle=none;html=1;noEdgeStyle=1;orthogonal=1;" parent="1" source="20" target="87" edge="1">
                    <mxGeometry relative="1" as="geometry">
                        <Array as="points">
                            <mxPoint x="96" y="572.5"/>
                            <mxPoint x="168" y="277.5"/>
                        </Array>
                    </mxGeometry>
                </mxCell>
                <mxCell id="92" style="edgeStyle=none;html=1;noEdgeStyle=1;orthogonal=1;" parent="1" source="20" target="88" edge="1">
                    <mxGeometry relative="1" as="geometry">
                        <Array as="points">
                            <mxPoint x="98" y="600.5"/>
                            <mxPoint x="168" y="717.5"/>
                        </Array>
                    </mxGeometry>
                </mxCell>
                <mxCell id="93" style="edgeStyle=none;html=1;noEdgeStyle=1;orthogonal=1;" parent="1" source="20" target="89" edge="1">
                    <mxGeometry relative="1" as="geometry">
                        <Array as="points">
                            <mxPoint x="94" y="614.5"/>
                            <mxPoint x="168" y="937.5"/>
                        </Array>
                    </mxGeometry>
                </mxCell>
                <mxCell id="20" value="x" style="ellipse;whiteSpace=wrap;html=1;aspect=fixed;glass=0;" parent="1" vertex="1">
                    <mxGeometry y="550" width="80" height="80" as="geometry"/>
                </mxCell>
                <mxCell id="50" style="edgeStyle=none;html=1;noEdgeStyle=1;orthogonal=1;" parent="1" source="21" target="34" edge="1">
                    <mxGeometry relative="1" as="geometry">
                        <Array as="points">
                            <mxPoint x="100" y="483.5"/>
                            <mxPoint x="168" y="572.5"/>
                        </Array>
                    </mxGeometry>
                </mxCell>
                <mxCell id="51" style="edgeStyle=none;html=1;noEdgeStyle=1;orthogonal=1;" parent="1" source="21" target="35" edge="1">
                    <mxGeometry relative="1" as="geometry">
                        <Array as="points">
                            <mxPoint x="100" y="476.5"/>
                            <mxPoint x="168" y="462.5"/>
                        </Array>
                    </mxGeometry>
                </mxCell>
                <mxCell id="52" style="edgeStyle=none;html=1;noEdgeStyle=1;orthogonal=1;" parent="1" source="21" target="37" edge="1">
                    <mxGeometry relative="1" as="geometry">
                        <Array as="points">
                            <mxPoint x="94" y="455.5"/>
                            <mxPoint x="168" y="132.5"/>
                        </Array>
                    </mxGeometry>
                </mxCell>
                <mxCell id="53" style="edgeStyle=none;html=1;noEdgeStyle=1;orthogonal=1;" parent="1" source="21" target="42" edge="1">
                    <mxGeometry relative="1" as="geometry">
                        <Array as="points">
                            <mxPoint x="98" y="469.5"/>
                            <mxPoint x="168" y="352.5"/>
                        </Array>
                    </mxGeometry>
                </mxCell>
                <mxCell id="82" style="edgeStyle=none;html=1;noEdgeStyle=1;orthogonal=1;" parent="1" source="21" target="80" edge="1">
                    <mxGeometry relative="1" as="geometry">
                        <Array as="points">
                            <mxPoint x="96" y="497.5"/>
                            <mxPoint x="168" y="792.5"/>
                        </Array>
                    </mxGeometry>
                </mxCell>
                <mxCell id="85" style="edgeStyle=none;html=1;noEdgeStyle=1;orthogonal=1;" parent="1" source="21" target="83" edge="1">
                    <mxGeometry relative="1" as="geometry">
                        <Array as="points">
                            <mxPoint x="92" y="511.5"/>
                            <mxPoint x="168" y="1012.5"/>
                        </Array>
                    </mxGeometry>
                </mxCell>
                <mxCell id="94" style="edgeStyle=none;html=1;noEdgeStyle=1;orthogonal=1;" parent="1" source="21" target="86" edge="1">
                    <mxGeometry relative="1" as="geometry">
                        <Array as="points">
                            <mxPoint x="92" y="448.5"/>
                            <mxPoint x="168" y="22.5"/>
                        </Array>
                    </mxGeometry>
                </mxCell>
                <mxCell id="95" style="edgeStyle=none;html=1;noEdgeStyle=1;orthogonal=1;" parent="1" source="21" target="87" edge="1">
                    <mxGeometry relative="1" as="geometry">
                        <Array as="points">
                            <mxPoint x="96" y="462.5"/>
                            <mxPoint x="168" y="242.5"/>
                        </Array>
                    </mxGeometry>
                </mxCell>
                <mxCell id="96" style="edgeStyle=none;html=1;noEdgeStyle=1;orthogonal=1;" parent="1" source="21" target="88" edge="1">
                    <mxGeometry relative="1" as="geometry">
                        <Array as="points">
                            <mxPoint x="98" y="490.5"/>
                            <mxPoint x="168" y="682.5"/>
                        </Array>
                    </mxGeometry>
                </mxCell>
                <mxCell id="98" style="edgeStyle=none;html=1;noEdgeStyle=1;orthogonal=1;" parent="1" source="21" target="89" edge="1">
                    <mxGeometry relative="1" as="geometry">
                        <Array as="points">
                            <mxPoint x="94" y="504.5"/>
                            <mxPoint x="168" y="902.5"/>
                        </Array>
                    </mxGeometry>
                </mxCell>
                <mxCell id="21" value="y" style="ellipse;whiteSpace=wrap;html=1;aspect=fixed;glass=0;" parent="1" vertex="1">
                    <mxGeometry y="440" width="80" height="80" as="geometry"/>
                </mxCell>
                <mxCell id="153" style="edgeStyle=none;html=1;noEdgeStyle=1;orthogonal=1;" parent="1" source="34" target="69" edge="1">
                    <mxGeometry relative="1" as="geometry">
                        <Array as="points">
                            <mxPoint x="272" y="590"/>
                            <mxPoint x="348" y="551.1052821594992"/>
                        </Array>
                    </mxGeometry>
                </mxCell>
                <mxCell id="34" value="L1" style="ellipse;whiteSpace=wrap;html=1;aspect=fixed;glass=0;" parent="1" vertex="1">
                    <mxGeometry x="180" y="550" width="80" height="80" as="geometry"/>
                </mxCell>
                <mxCell id="152" style="edgeStyle=none;html=1;noEdgeStyle=1;orthogonal=1;" parent="1" source="35" target="69" edge="1">
                    <mxGeometry relative="1" as="geometry">
                        <Array as="points">
                            <mxPoint x="272" y="480"/>
                            <mxPoint x="348" y="516.1052821594992"/>
                        </Array>
                    </mxGeometry>
                </mxCell>
                <mxCell id="35" value="L2" style="ellipse;whiteSpace=wrap;html=1;aspect=fixed;glass=0;" parent="1" vertex="1">
                    <mxGeometry x="180" y="440" width="80" height="80" as="geometry"/>
                </mxCell>
                <mxCell id="148" style="edgeStyle=none;html=1;noEdgeStyle=1;orthogonal=1;" parent="1" source="37" target="78" edge="1">
                    <mxGeometry relative="1" as="geometry">
                        <Array as="points">
                            <mxPoint x="272" y="150"/>
                            <mxPoint x="348" y="209.0448299455054"/>
                        </Array>
                    </mxGeometry>
                </mxCell>
                <mxCell id="37" value="L4" style="ellipse;whiteSpace=wrap;html=1;aspect=fixed;glass=0;" parent="1" vertex="1">
                    <mxGeometry x="180" y="110" width="80" height="80" as="geometry"/>
                </mxCell>
                <mxCell id="156" style="edgeStyle=none;html=1;noEdgeStyle=1;orthogonal=1;" parent="1" source="42" target="76" edge="1">
                    <mxGeometry relative="1" as="geometry">
                        <Array as="points">
                            <mxPoint x="272" y="370"/>
                            <mxPoint x="348" y="355.7114966121721"/>
                        </Array>
                    </mxGeometry>
                </mxCell>
                <mxCell id="42" value="L6" style="ellipse;whiteSpace=wrap;html=1;aspect=fixed;glass=0;" parent="1" vertex="1">
                    <mxGeometry x="180" y="330" width="80" height="80" as="geometry"/>
                </mxCell>
                <mxCell id="160" style="edgeStyle=none;html=1;noEdgeStyle=1;orthogonal=1;" parent="1" source="69" target="121" edge="1">
                    <mxGeometry relative="1" as="geometry">
                        <Array as="points">
                            <mxPoint x="452" y="516.1052821594992"/>
                            <mxPoint x="528" y="409.5011751151379"/>
                        </Array>
                    </mxGeometry>
                </mxCell>
                <mxCell id="161" style="edgeStyle=none;html=1;noEdgeStyle=1;orthogonal=1;" parent="1" source="69" target="123" edge="1">
                    <mxGeometry relative="1" as="geometry">
                        <Array as="points">
                            <mxPoint x="452" y="551.1052821594992"/>
                            <mxPoint x="528" y="655.9857402220675"/>
                        </Array>
                    </mxGeometry>
                </mxCell>
                <mxCell id="69" value="AND" style="ellipse;whiteSpace=wrap;html=1;aspect=fixed;glass=0;" parent="1" vertex="1">
                    <mxGeometry x="360" y="493.6052821594992" width="80" height="80" as="geometry"/>
                </mxCell>
                <mxCell id="164" style="edgeStyle=none;html=1;noEdgeStyle=1;orthogonal=1;" parent="1" source="76" target="121" edge="1">
                    <mxGeometry relative="1" as="geometry">
                        <Array as="points">
                            <mxPoint x="452" y="338.2114966121721"/>
                            <mxPoint x="526" y="386.1678417818046"/>
                        </Array>
                    </mxGeometry>
                </mxCell>
                <mxCell id="76" value="OR" style="ellipse;whiteSpace=wrap;html=1;aspect=fixed;glass=0;" parent="1" vertex="1">
                    <mxGeometry x="360" y="298.2114966121721" width="80" height="80" as="geometry"/>
                </mxCell>
                <mxCell id="165" style="edgeStyle=none;html=1;noEdgeStyle=1;orthogonal=1;" parent="1" source="77" target="123" edge="1">
                    <mxGeometry relative="1" as="geometry">
                        <Array as="points">
                            <mxPoint x="452" y="729.773024518467"/>
                            <mxPoint x="526" y="679.3190735554009"/>
                        </Array>
                    </mxGeometry>
                </mxCell>
                <mxCell id="77" value="AND" style="ellipse;whiteSpace=wrap;html=1;aspect=fixed;glass=0;" parent="1" vertex="1">
                    <mxGeometry x="360" y="689.773024518467" width="80" height="80" as="geometry"/>
                </mxCell>
                <mxCell id="163" style="edgeStyle=none;html=1;noEdgeStyle=1;orthogonal=1;" parent="1" source="78" target="121" edge="1">
                    <mxGeometry relative="1" as="geometry">
                        <Array as="points">
                            <mxPoint x="452" y="191.5448299455054"/>
                            <mxPoint x="528" y="362.8345084484713"/>
                        </Array>
                    </mxGeometry>
                </mxCell>
                <mxCell id="78" value="AND" style="ellipse;whiteSpace=wrap;html=1;aspect=fixed;glass=0;" parent="1" vertex="1">
                    <mxGeometry x="360" y="151.5448299455054" width="80" height="80" as="geometry"/>
                </mxCell>
                <mxCell id="154" style="edgeStyle=none;html=1;noEdgeStyle=1;orthogonal=1;" parent="1" source="80" target="77" edge="1">
                    <mxGeometry relative="1" as="geometry">
                        <Array as="points">
                            <mxPoint x="272" y="810"/>
                            <mxPoint x="348" y="747.273024518467"/>
                        </Array>
                    </mxGeometry>
                </mxCell>
                <mxCell id="80" value="L8" style="ellipse;whiteSpace=wrap;html=1;aspect=fixed;glass=0;" parent="1" vertex="1">
                    <mxGeometry x="180" y="770" width="80" height="80" as="geometry"/>
                </mxCell>
                <mxCell id="158" style="edgeStyle=none;html=1;noEdgeStyle=1;orthogonal=1;" parent="1" source="83" target="105" edge="1">
                    <mxGeometry relative="1" as="geometry">
                        <Array as="points">
                            <mxPoint x="272" y="1030"/>
                            <mxPoint x="348" y="893.9396911851336"/>
                        </Array>
                    </mxGeometry>
                </mxCell>
                <mxCell id="83" value="L10" style="ellipse;whiteSpace=wrap;html=1;aspect=fixed;glass=0;" parent="1" vertex="1">
                    <mxGeometry x="180" y="990" width="80" height="80" as="geometry"/>
                </mxCell>
                <mxCell id="149" style="edgeStyle=none;html=1;noEdgeStyle=1;orthogonal=1;" parent="1" source="86" target="78" edge="1">
                    <mxGeometry relative="1" as="geometry">
                        <Array as="points">
                            <mxPoint x="272" y="40"/>
                            <mxPoint x="348" y="174.0448299455054"/>
                        </Array>
                    </mxGeometry>
                </mxCell>
                <mxCell id="86" value="L3" style="ellipse;whiteSpace=wrap;html=1;aspect=fixed;glass=0;" parent="1" vertex="1">
                    <mxGeometry x="180" width="80" height="80" as="geometry"/>
                </mxCell>
                <mxCell id="157" style="edgeStyle=none;html=1;noEdgeStyle=1;orthogonal=1;" parent="1" source="87" target="76" edge="1">
                    <mxGeometry relative="1" as="geometry">
                        <Array as="points">
                            <mxPoint x="272" y="260"/>
                            <mxPoint x="348" y="320.7114966121721"/>
                        </Array>
                    </mxGeometry>
                </mxCell>
                <mxCell id="87" value="L5" style="ellipse;whiteSpace=wrap;html=1;aspect=fixed;glass=0;" parent="1" vertex="1">
                    <mxGeometry x="180" y="220" width="80" height="80" as="geometry"/>
                </mxCell>
                <mxCell id="155" style="edgeStyle=none;html=1;noEdgeStyle=1;orthogonal=1;" parent="1" source="88" target="77" edge="1">
                    <mxGeometry relative="1" as="geometry">
                        <Array as="points">
                            <mxPoint x="272" y="700"/>
                            <mxPoint x="348" y="712.273024518467"/>
                        </Array>
                    </mxGeometry>
                </mxCell>
                <mxCell id="88" value="L7" style="ellipse;whiteSpace=wrap;html=1;aspect=fixed;glass=0;" parent="1" vertex="1">
                    <mxGeometry x="180" y="660" width="80" height="80" as="geometry"/>
                </mxCell>
                <mxCell id="159" style="edgeStyle=none;html=1;noEdgeStyle=1;orthogonal=1;" parent="1" source="89" target="105" edge="1">
                    <mxGeometry relative="1" as="geometry">
                        <Array as="points">
                            <mxPoint x="272" y="920"/>
                            <mxPoint x="348" y="858.9396911851336"/>
                        </Array>
                    </mxGeometry>
                </mxCell>
                <mxCell id="89" value="L9" style="ellipse;whiteSpace=wrap;html=1;aspect=fixed;glass=0;" parent="1" vertex="1">
                    <mxGeometry x="180" y="880" width="80" height="80" as="geometry"/>
                </mxCell>
                <mxCell id="166" style="edgeStyle=none;html=1;noEdgeStyle=1;orthogonal=1;" parent="1" source="105" target="123" edge="1">
                    <mxGeometry relative="1" as="geometry">
                        <Array as="points">
                            <mxPoint x="452" y="876.4396911851336"/>
                            <mxPoint x="528" y="702.6524068887343"/>
                        </Array>
                    </mxGeometry>
                </mxCell>
                <mxCell id="105" value="OR" style="ellipse;whiteSpace=wrap;html=1;aspect=fixed;glass=0;" parent="1" vertex="1">
                    <mxGeometry x="360" y="836.4396911851336" width="80" height="80" as="geometry"/>
                </mxCell>
                <mxCell id="126" style="edgeStyle=none;html=1;noEdgeStyle=1;orthogonal=1;" parent="1" source="121" target="125" edge="1">
                    <mxGeometry relative="1" as="geometry">
                        <Array as="points">
                            <mxPoint x="632" y="386.1678417818046"/>
                            <mxPoint x="708" y="513.9860019762331"/>
                        </Array>
                    </mxGeometry>
                </mxCell>
                <mxCell id="121" value="AND&lt;br&gt;A" style="ellipse;whiteSpace=wrap;html=1;aspect=fixed;glass=0;" parent="1" vertex="1">
                    <mxGeometry x="540" y="346.1678417818046" width="80" height="80" as="geometry"/>
                </mxCell>
                <mxCell id="127" style="edgeStyle=none;html=1;noEdgeStyle=1;orthogonal=1;" parent="1" source="123" target="125" edge="1">
                    <mxGeometry relative="1" as="geometry">
                        <Array as="points">
                            <mxPoint x="632" y="679.3190735554009"/>
                            <mxPoint x="708" y="548.9860019762331"/>
                        </Array>
                    </mxGeometry>
                </mxCell>
                <mxCell id="123" value="AND&lt;br&gt;B" style="ellipse;whiteSpace=wrap;html=1;aspect=fixed;glass=0;" parent="1" vertex="1">
                    <mxGeometry x="540" y="639.3190735554009" width="80" height="80" as="geometry"/>
                </mxCell>
                <mxCell id="131" style="edgeStyle=none;html=1;noEdgeStyle=1;orthogonal=1;" parent="1" source="125" target="130" edge="1">
                    <mxGeometry relative="1" as="geometry">
                        <Array as="points">
                            <mxPoint x="812" y="531.4860019762331"/>
                            <mxPoint x="888" y="531.4860019762331"/>
                        </Array>
                    </mxGeometry>
                </mxCell>
                <mxCell id="125" value="OR" style="ellipse;whiteSpace=wrap;html=1;aspect=fixed;glass=0;" parent="1" vertex="1">
                    <mxGeometry x="720" y="491.48600197623307" width="80" height="80" as="geometry"/>
                </mxCell>
                <mxCell id="130" value="Inside&lt;br&gt;Shape" style="ellipse;whiteSpace=wrap;html=1;aspect=fixed;glass=0;" parent="1" vertex="1">
                    <mxGeometry x="900" y="491.48600197623307" width="80" height="80" as="geometry"/>
                </mxCell>
                <mxCell id="68" value="L3" style="text;html=1;align=center;verticalAlign=middle;resizable=0;points=[];autosize=1;strokeColor=none;" parent="1" vertex="1">
                    <mxGeometry x="785" y="250" width="30" height="20" as="geometry"/>
                </mxCell>
                <mxCell id="12" value="" style="group;glass=0;" parent="1" vertex="1" connectable="0">
                    <mxGeometry x="760" y="200" width="160" height="60" as="geometry"/>
                </mxCell>
                <mxCell id="6" value="" style="endArrow=none;html=1;" parent="12" edge="1">
                    <mxGeometry width="50" height="50" relative="1" as="geometry">
                        <mxPoint as="sourcePoint"/>
                        <mxPoint x="80" y="20" as="targetPoint"/>
                    </mxGeometry>
                </mxCell>
                <mxCell id="7" value="" style="endArrow=none;html=1;" parent="12" edge="1">
                    <mxGeometry width="50" height="50" relative="1" as="geometry">
                        <mxPoint as="sourcePoint"/>
                        <mxPoint y="40" as="targetPoint"/>
                    </mxGeometry>
                </mxCell>
                <mxCell id="8" value="" style="endArrow=none;html=1;" parent="12" edge="1">
                    <mxGeometry width="50" height="50" relative="1" as="geometry">
                        <mxPoint y="40" as="sourcePoint"/>
                        <mxPoint x="80" y="60" as="targetPoint"/>
                    </mxGeometry>
                </mxCell>
                <mxCell id="9" value="" style="endArrow=none;html=1;" parent="12" edge="1">
                    <mxGeometry width="50" height="50" relative="1" as="geometry">
                        <mxPoint x="80" y="20" as="sourcePoint"/>
                        <mxPoint x="160" as="targetPoint"/>
                    </mxGeometry>
                </mxCell>
                <mxCell id="10" value="" style="endArrow=none;html=1;" parent="12" edge="1">
                    <mxGeometry width="50" height="50" relative="1" as="geometry">
                        <mxPoint x="80" y="60" as="sourcePoint"/>
                        <mxPoint x="160" y="40" as="targetPoint"/>
                    </mxGeometry>
                </mxCell>
                <mxCell id="11" value="" style="endArrow=none;html=1;" parent="12" edge="1">
                    <mxGeometry width="50" height="50" relative="1" as="geometry">
                        <mxPoint x="160" as="sourcePoint"/>
                        <mxPoint x="160" y="40" as="targetPoint"/>
                    </mxGeometry>
                </mxCell>
                <mxCell id="67" value="L5" style="text;html=1;align=center;verticalAlign=middle;resizable=0;points=[];autosize=1;strokeColor=none;" parent="12" vertex="1">
                    <mxGeometry x="25" y="-10" width="30" height="20" as="geometry"/>
                </mxCell>
                <mxCell id="115" value="L6" style="text;html=1;align=center;verticalAlign=middle;resizable=0;points=[];autosize=1;strokeColor=none;" parent="12" vertex="1">
                    <mxGeometry x="110" y="-10" width="30" height="20" as="geometry"/>
                </mxCell>
                <mxCell id="132" value="A" style="text;html=1;align=center;verticalAlign=middle;resizable=0;points=[];autosize=1;strokeColor=none;" parent="12" vertex="1">
                    <mxGeometry x="70" y="30" width="20" height="20" as="geometry"/>
                </mxCell>
                <mxCell id="13" value="" style="group" parent="1" vertex="1" connectable="0">
                    <mxGeometry x="760" y="280" width="160" height="60" as="geometry"/>
                </mxCell>
                <mxCell id="14" value="" style="endArrow=none;html=1;" parent="13" edge="1">
                    <mxGeometry width="50" height="50" relative="1" as="geometry">
                        <mxPoint as="sourcePoint"/>
                        <mxPoint x="80" y="20" as="targetPoint"/>
                    </mxGeometry>
                </mxCell>
                <mxCell id="15" value="" style="endArrow=none;html=1;" parent="13" edge="1">
                    <mxGeometry width="50" height="50" relative="1" as="geometry">
                        <mxPoint as="sourcePoint"/>
                        <mxPoint y="40" as="targetPoint"/>
                    </mxGeometry>
                </mxCell>
                <mxCell id="16" value="" style="endArrow=none;html=1;" parent="13" edge="1">
                    <mxGeometry width="50" height="50" relative="1" as="geometry">
                        <mxPoint y="40" as="sourcePoint"/>
                        <mxPoint x="80" y="60" as="targetPoint"/>
                    </mxGeometry>
                </mxCell>
                <mxCell id="17" value="" style="endArrow=none;html=1;" parent="13" edge="1">
                    <mxGeometry width="50" height="50" relative="1" as="geometry">
                        <mxPoint x="80" y="20" as="sourcePoint"/>
                        <mxPoint x="160" as="targetPoint"/>
                    </mxGeometry>
                </mxCell>
                <mxCell id="18" value="" style="endArrow=none;html=1;" parent="13" edge="1">
                    <mxGeometry width="50" height="50" relative="1" as="geometry">
                        <mxPoint x="80" y="60" as="sourcePoint"/>
                        <mxPoint x="160" y="40" as="targetPoint"/>
                    </mxGeometry>
                </mxCell>
                <mxCell id="19" value="" style="endArrow=none;html=1;" parent="13" edge="1">
                    <mxGeometry width="50" height="50" relative="1" as="geometry">
                        <mxPoint x="160" as="sourcePoint"/>
                        <mxPoint x="160" y="40" as="targetPoint"/>
                    </mxGeometry>
                </mxCell>
                <mxCell id="113" value="L10" style="text;html=1;align=center;verticalAlign=middle;resizable=0;points=[];autosize=1;strokeColor=none;" parent="13" vertex="1">
                    <mxGeometry x="105" y="-10" width="40" height="20" as="geometry"/>
                </mxCell>
                <mxCell id="133" value="B" style="text;html=1;align=center;verticalAlign=middle;resizable=0;points=[];autosize=1;strokeColor=none;" parent="13" vertex="1">
                    <mxGeometry x="70" y="30" width="20" height="20" as="geometry"/>
                </mxCell>
                <mxCell id="56" value="" style="endArrow=none;dashed=1;html=1;" parent="1" edge="1">
                    <mxGeometry x="750" y="140" width="50" height="50" as="geometry">
                        <mxPoint x="759.6" y="360" as="sourcePoint"/>
                        <mxPoint x="759.6" y="160" as="targetPoint"/>
                    </mxGeometry>
                </mxCell>
                <mxCell id="57" value="" style="endArrow=none;dashed=1;html=1;" parent="1" edge="1">
                    <mxGeometry x="750" y="140" width="50" height="50" as="geometry">
                        <mxPoint x="920" y="360" as="sourcePoint"/>
                        <mxPoint x="920" y="160" as="targetPoint"/>
                    </mxGeometry>
                </mxCell>
                <mxCell id="58" value="L1" style="text;html=1;align=center;verticalAlign=middle;resizable=0;points=[];autosize=1;strokeColor=none;" parent="1" vertex="1">
                    <mxGeometry x="750" y="140" width="30" height="20" as="geometry"/>
                </mxCell>
                <mxCell id="61" value="L2" style="text;html=1;align=center;verticalAlign=middle;resizable=0;points=[];autosize=1;strokeColor=none;" parent="1" vertex="1">
                    <mxGeometry x="900" y="140" width="30" height="20" as="geometry"/>
                </mxCell>
                <mxCell id="65" value="L9" style="text;html=1;align=center;verticalAlign=middle;resizable=0;points=[];autosize=1;strokeColor=none;" parent="1" vertex="1">
                    <mxGeometry x="785" y="270" width="30" height="20" as="geometry"/>
                </mxCell>
                <mxCell id="66" value="L7" style="text;html=1;align=center;verticalAlign=middle;resizable=0;points=[];autosize=1;strokeColor=none;" parent="1" vertex="1">
                    <mxGeometry x="785" y="330" width="30" height="20" as="geometry"/>
                </mxCell>
                <mxCell id="112" value="L8" style="text;html=1;align=center;verticalAlign=middle;resizable=0;points=[];autosize=1;strokeColor=none;" parent="1" vertex="1">
                    <mxGeometry x="870" y="330" width="30" height="20" as="geometry"/>
                </mxCell>
                <mxCell id="114" value="L4" style="text;html=1;align=center;verticalAlign=middle;resizable=0;points=[];autosize=1;strokeColor=none;" parent="1" vertex="1">
                    <mxGeometry x="870" y="250" width="30" height="20" as="geometry"/>
                </mxCell>
            </root>
        </mxGraphModel>
    </diagram>
</mxfile>
